<svg width="134" height="20" viewBox="0 0 134 20" fill="none" xmlns="http://www.w3.org/2000/svg">
<path d="M0 19.4298H5.61883V8.08129L16.9336 19.4009H26.0269V0.428882H20.2972V14.3121L6.92957 0.944504C6.32721 0.337323 5.508 0 4.65505 0H3.2142C1.44085 0 0 1.44085 0 3.2142V19.4298Z" fill="#1565BD"/>
<path d="M35.4823 19.4297H29.584V0.409546H35.4823V19.4297Z" fill="#1565BD"/>
<path d="M59.3926 11.999C59.3926 13.6422 58.0626 14.9723 56.4242 14.9723H48.2369C46.5984 14.9723 45.2684 13.6422 45.2684 11.999V7.83547C45.2684 6.19222 46.5984 4.86703 48.2369 4.86703H56.4242C58.0626 4.86703 59.3926 6.19222 59.3926 7.83547V11.999ZM60.0335 0.409546H44.6275C41.5386 0.409546 39.0376 2.91055 39.0376 5.99947V13.8398C39.0376 16.9239 41.5386 19.4297 44.6275 19.4297H60.0335C63.1176 19.4297 65.6186 16.9239 65.6186 13.8398V5.99947C65.6186 2.91055 63.1176 0.409546 60.0335 0.409546Z" fill="#1565BD"/>
<path d="M87.746 0.255432H67.4729V4.71291H73.8917V19.4877H81.3272V4.71291H87.746V0.255432Z" fill="#1565BD"/>
<path d="M118.001 19.5791H112.107V0.260132H118.001V19.5791Z" fill="#1565BD"/>
<path d="M133.424 19.5359H127.159L118.731 12.0088V6.53449L126.432 0.260289L132.364 0.216919L121.97 9.29572L133.424 19.5359Z" fill="#1565BD"/>
<path d="M99.7984 14.9722C98.1311 14.9722 96.7818 13.6229 96.7818 11.9556V7.72462C96.7818 6.05728 98.1311 4.70799 99.7984 4.70799C99.7984 4.70799 108.41 4.70799 108.569 4.70799V0.178223H96.1313C92.9941 0.178223 90.4546 2.7226 90.4546 5.85488V13.8205C90.4546 16.9576 92.9941 19.4972 96.1313 19.4972H108.569V14.9722C108.41 14.9722 99.7984 14.9722 99.7984 14.9722Z" fill="#1565BD"/>
<path d="M108.221 11.1605H99.2581C98.6702 11.1605 98.1931 10.6834 98.1931 10.0955V9.00162C98.1931 8.41372 98.6702 7.93665 99.2581 7.93665H108.221C108.38 7.93665 108.51 8.06676 108.51 8.22578V10.8665C108.51 11.0304 108.38 11.1605 108.221 11.1605Z" fill="#1565BD"/>
</svg>
